<svg id="visual" viewBox="0 0 900 600" width="900" height="600" xmlns="http://www.w3.org/2000/svg" xmlns:xlink="http://www.w3.org/1999/xlink" version="1.1"><g stroke-width="1" stroke-linejoin="bevel"><path d="M440.1 291L457.9 349L468.9 309Z" fill="#0b0b0d" stroke="#0b0b0d"></path><path d="M440.1 291L374.1 355L457.9 349Z" fill="#0e0e10" stroke="#0e0e10"></path><path d="M440.1 291L340.3 289L374.1 355Z" fill="#0b0b0d" stroke="#0b0b0d"></path><path d="M558.7 251L515.9 230L468.9 309Z" fill="#0c0c0e" stroke="#0c0c0e"></path><path d="M468.9 309L515.9 230L440.1 291Z" fill="#101012" stroke="#101012"></path><path d="M440.1 291L383.1 203L340.3 289Z" fill="#0d0d0f" stroke="#0d0d0f"></path><path d="M411.1 465L476.9 441L457.9 349Z" fill="#0f0f11" stroke="#0f0f11"></path><path d="M584.7 329L558.7 251L468.9 309Z" fill="#101012" stroke="#101012"></path><path d="M515.9 230L383.1 203L440.1 291Z" fill="#0e0e10" stroke="#0e0e10"></path><path d="M340.3 289L317.3 381L374.1 355Z" fill="#0c0c0e" stroke="#0c0c0e"></path><path d="M374.1 355L411.1 465L457.9 349Z" fill="#0c0c0e" stroke="#0c0c0e"></path><path d="M572.7 363L468.9 309L457.9 349Z" fill="#121214" stroke="#121214"></path><path d="M476.9 441L572.7 363L457.9 349Z" fill="#111113" stroke="#111113"></path><path d="M572.7 363L584.7 329L468.9 309Z" fill="#0b0b0d" stroke="#0b0b0d"></path><path d="M351.3 444L411.1 465L374.1 355Z" fill="#0d0d0f" stroke="#0d0d0f"></path><path d="M317.3 381L351.3 444L374.1 355Z" fill="#0e0e10" stroke="#0e0e10"></path><path d="M383.1 203L314.3 221L340.3 289Z" fill="#0a0a0c" stroke="#0a0a0c"></path><path d="M340.3 289L262.5 317L317.3 381Z" fill="#0c0c0e" stroke="#0c0c0e"></path><path d="M314.3 221L262.5 317L340.3 289Z" fill="#101012" stroke="#101012"></path><path d="M317.3 381L225.5 423L351.3 444Z" fill="#0c0c0e" stroke="#0c0c0e"></path><path d="M383.1 203L350.3 157L314.3 221Z" fill="#111113" stroke="#111113"></path><path d="M430.1 117L350.3 157L383.1 203Z" fill="#101012" stroke="#101012"></path><path d="M351.3 444L420.1 515L411.1 465Z" fill="#121214" stroke="#121214"></path><path d="M411.1 465L420.1 515L476.9 441Z" fill="#0c0c0e" stroke="#0c0c0e"></path><path d="M476.9 441L576.7 478L572.7 363Z" fill="#0d0d0f" stroke="#0d0d0f"></path><path d="M568.7 158L463.9 125L515.9 230Z" fill="#0a0a0c" stroke="#0a0a0c"></path><path d="M515.9 230L463.9 125L383.1 203Z" fill="#0d0d0f" stroke="#0d0d0f"></path><path d="M279.5 167L262.5 220L314.3 221Z" fill="#0a0a0c" stroke="#0a0a0c"></path><path d="M314.3 221L262.5 220L262.5 317Z" fill="#0e0e10" stroke="#0e0e10"></path><path d="M463.9 125L430.1 117L383.1 203Z" fill="#09090b" stroke="#09090b"></path><path d="M506.9 550L576.7 478L476.9 441Z" fill="#101012" stroke="#101012"></path><path d="M572.7 363L671.5 347L584.7 329Z" fill="#0c0c0e" stroke="#0c0c0e"></path><path d="M558.7 251L568.7 158L515.9 230Z" fill="#101012" stroke="#101012"></path><path d="M660.5 202L568.7 158L558.7 251Z" fill="#09090b" stroke="#09090b"></path><path d="M308.3 90L279.5 167L350.3 157Z" fill="#0b0b0d" stroke="#0b0b0d"></path><path d="M350.3 157L279.5 167L314.3 221Z" fill="#0f0f11" stroke="#0f0f11"></path><path d="M568.7 158L478.9 98L463.9 125Z" fill="#0c0c0e" stroke="#0c0c0e"></path><path d="M463.9 125L478.9 98L430.1 117Z" fill="#0a0a0c" stroke="#0a0a0c"></path><path d="M430.1 117L425.1 90L350.3 157Z" fill="#0a0a0c" stroke="#0a0a0c"></path><path d="M645.5 481L671.5 347L572.7 363Z" fill="#09090b" stroke="#09090b"></path><path d="M584.7 329L687.5 291L558.7 251Z" fill="#0c0c0e" stroke="#0c0c0e"></path><path d="M478.9 98L425.1 90L430.1 117Z" fill="#0b0b0d" stroke="#0b0b0d"></path><path d="M420.1 515L506.9 550L476.9 441Z" fill="#111113" stroke="#111113"></path><path d="M213.5 408L317.3 381L262.5 317Z" fill="#0d0d0f" stroke="#0d0d0f"></path><path d="M213.5 408L225.5 423L317.3 381Z" fill="#101012" stroke="#101012"></path><path d="M351.3 444L293.3 524L420.1 515Z" fill="#0d0d0f" stroke="#0d0d0f"></path><path d="M155.6 352L213.5 408L262.5 317Z" fill="#111113" stroke="#111113"></path><path d="M506.9 550L560.7 534L576.7 478Z" fill="#0f0f11" stroke="#0f0f11"></path><path d="M576.7 478L645.5 481L572.7 363Z" fill="#0a0a0c" stroke="#0a0a0c"></path><path d="M671.5 347L687.5 291L584.7 329Z" fill="#0a0a0c" stroke="#0a0a0c"></path><path d="M258.5 554L293.3 524L177.6 476Z" fill="#0f0f11" stroke="#0f0f11"></path><path d="M225.5 423L293.3 524L351.3 444Z" fill="#0e0e10" stroke="#0e0e10"></path><path d="M420.1 515L464.9 600L506.9 550Z" fill="#0e0e10" stroke="#0e0e10"></path><path d="M687.5 291L660.5 202L558.7 251Z" fill="#121214" stroke="#121214"></path><path d="M568.7 158L571.7 81L478.9 98Z" fill="#0a0a0c" stroke="#0a0a0c"></path><path d="M635.5 519L645.5 481L576.7 478Z" fill="#0a0a0c" stroke="#0a0a0c"></path><path d="M671.5 347L740.4 310L687.5 291Z" fill="#111113" stroke="#111113"></path><path d="M425.1 90L308.3 90L350.3 157Z" fill="#0e0e10" stroke="#0e0e10"></path><path d="M704.4 147L571.7 81L568.7 158Z" fill="#121214" stroke="#121214"></path><path d="M483.9 0L397.1 0L425.1 90Z" fill="#111113" stroke="#111113"></path><path d="M425.1 90L397.1 0L308.3 90Z" fill="#09090b" stroke="#09090b"></path><path d="M560.7 534L635.5 519L576.7 478Z" fill="#09090b" stroke="#09090b"></path><path d="M647.5 600L635.5 519L560.7 534Z" fill="#0a0a0c" stroke="#0a0a0c"></path><path d="M741.4 214L679.5 182L660.5 202Z" fill="#0a0a0c" stroke="#0a0a0c"></path><path d="M660.5 202L679.5 182L568.7 158Z" fill="#0f0f11" stroke="#0f0f11"></path><path d="M361.3 600L421.1 600L420.1 515Z" fill="#0f0f11" stroke="#0f0f11"></path><path d="M506.9 550L548.7 600L560.7 534Z" fill="#101012" stroke="#101012"></path><path d="M421.1 600L464.9 600L420.1 515Z" fill="#101012" stroke="#101012"></path><path d="M135.6 278L155.6 352L262.5 317Z" fill="#0f0f11" stroke="#0f0f11"></path><path d="M177.6 476L293.3 524L225.5 423Z" fill="#121214" stroke="#121214"></path><path d="M135.6 278L262.5 317L262.5 220Z" fill="#0a0a0c" stroke="#0a0a0c"></path><path d="M170.6 201L262.5 220L279.5 167Z" fill="#101012" stroke="#101012"></path><path d="M293.3 524L361.3 600L420.1 515Z" fill="#0b0b0d" stroke="#0b0b0d"></path><path d="M177.6 476L225.5 423L213.5 408Z" fill="#0d0d0f" stroke="#0d0d0f"></path><path d="M293.3 524L261.5 600L361.3 600Z" fill="#101012" stroke="#101012"></path><path d="M215.5 75L170.6 201L279.5 167Z" fill="#0b0b0d" stroke="#0b0b0d"></path><path d="M464.9 600L548.7 600L506.9 550Z" fill="#0d0d0f" stroke="#0d0d0f"></path><path d="M768.4 394L740.4 310L671.5 347Z" fill="#0c0c0e" stroke="#0c0c0e"></path><path d="M687.5 291L741.4 214L660.5 202Z" fill="#111113" stroke="#111113"></path><path d="M717.4 455L671.5 347L645.5 481Z" fill="#0c0c0e" stroke="#0c0c0e"></path><path d="M104.8 416L177.6 476L213.5 408Z" fill="#09090b" stroke="#09090b"></path><path d="M737.4 513L645.5 481L635.5 519Z" fill="#0e0e10" stroke="#0e0e10"></path><path d="M737.4 513L717.4 455L645.5 481Z" fill="#121214" stroke="#121214"></path><path d="M170.6 201L135.6 278L262.5 220Z" fill="#111113" stroke="#111113"></path><path d="M77.8 546L171.6 533L177.6 476Z" fill="#111113" stroke="#111113"></path><path d="M741.4 214L704.4 147L679.5 182Z" fill="#0b0b0d" stroke="#0b0b0d"></path><path d="M679.5 182L704.4 147L568.7 158Z" fill="#121214" stroke="#121214"></path><path d="M740.4 310L741.4 214L687.5 291Z" fill="#101012" stroke="#101012"></path><path d="M483.9 0L425.1 90L478.9 98Z" fill="#101012" stroke="#101012"></path><path d="M308.3 90L215.5 75L279.5 167Z" fill="#101012" stroke="#101012"></path><path d="M563.7 0L483.9 0L571.7 81Z" fill="#0d0d0f" stroke="#0d0d0f"></path><path d="M571.7 81L483.9 0L478.9 98Z" fill="#0c0c0e" stroke="#0c0c0e"></path><path d="M180.6 600L261.5 600L258.5 554Z" fill="#0c0c0e" stroke="#0c0c0e"></path><path d="M258.5 554L261.5 600L293.3 524Z" fill="#0b0b0d" stroke="#0b0b0d"></path><path d="M278.5 0L215.5 75L308.3 90Z" fill="#121214" stroke="#121214"></path><path d="M170.6 201L78.8 214L135.6 278Z" fill="#0f0f11" stroke="#0f0f11"></path><path d="M717.4 455L768.4 394L671.5 347Z" fill="#101012" stroke="#101012"></path><path d="M740.4 310L793.2 236L741.4 214Z" fill="#0f0f11" stroke="#0f0f11"></path><path d="M397.1 0L330.3 0L308.3 90Z" fill="#101012" stroke="#101012"></path><path d="M104.8 416L213.5 408L155.6 352Z" fill="#0b0b0d" stroke="#0b0b0d"></path><path d="M177.6 476L171.6 533L258.5 554Z" fill="#09090b" stroke="#09090b"></path><path d="M644.5 44L563.7 0L571.7 81Z" fill="#101012" stroke="#101012"></path><path d="M704.4 147L644.5 44L571.7 81Z" fill="#0b0b0d" stroke="#0b0b0d"></path><path d="M548.7 600L647.5 600L560.7 534Z" fill="#111113" stroke="#111113"></path><path d="M717.4 455L831.2 447L768.4 394Z" fill="#0e0e10" stroke="#0e0e10"></path><path d="M176.6 80L135.6 157L170.6 201Z" fill="#101012" stroke="#101012"></path><path d="M94.8 389L155.6 352L135.6 278Z" fill="#101012" stroke="#101012"></path><path d="M94.8 389L104.8 416L155.6 352Z" fill="#111113" stroke="#111113"></path><path d="M56.8 282L94.8 389L135.6 278Z" fill="#0e0e10" stroke="#0e0e10"></path><path d="M647.5 600L737.4 513L635.5 519Z" fill="#0d0d0f" stroke="#0d0d0f"></path><path d="M140.6 0L176.6 80L215.5 75Z" fill="#111113" stroke="#111113"></path><path d="M215.5 75L176.6 80L170.6 201Z" fill="#121214" stroke="#121214"></path><path d="M330.3 0L278.5 0L308.3 90Z" fill="#0a0a0c" stroke="#0a0a0c"></path><path d="M821.2 139L768.4 86L704.4 147Z" fill="#09090b" stroke="#09090b"></path><path d="M719.4 0L647.5 0L644.5 44Z" fill="#101012" stroke="#101012"></path><path d="M810.2 310L793.2 236L740.4 310Z" fill="#0b0b0d" stroke="#0b0b0d"></path><path d="M852.2 385L810.2 310L768.4 394Z" fill="#101012" stroke="#101012"></path><path d="M768.4 394L810.2 310L740.4 310Z" fill="#111113" stroke="#111113"></path><path d="M55.8 156L78.8 214L135.6 157Z" fill="#121214" stroke="#121214"></path><path d="M135.6 157L78.8 214L170.6 201Z" fill="#0f0f11" stroke="#0f0f11"></path><path d="M85.8 600L180.6 600L171.6 533Z" fill="#0f0f11" stroke="#0f0f11"></path><path d="M171.6 533L180.6 600L258.5 554Z" fill="#0d0d0f" stroke="#0d0d0f"></path><path d="M768.4 86L644.5 44L704.4 147Z" fill="#0d0d0f" stroke="#0d0d0f"></path><path d="M644.5 44L647.5 0L563.7 0Z" fill="#0d0d0f" stroke="#0d0d0f"></path><path d="M78.8 214L56.8 282L135.6 278Z" fill="#111113" stroke="#111113"></path><path d="M647.5 600L734.4 600L737.4 513Z" fill="#09090b" stroke="#09090b"></path><path d="M737.4 513L831.2 447L717.4 455Z" fill="#0d0d0f" stroke="#0d0d0f"></path><path d="M821.2 139L741.4 214L793.2 236Z" fill="#0f0f11" stroke="#0f0f11"></path><path d="M821.2 139L704.4 147L741.4 214Z" fill="#101012" stroke="#101012"></path><path d="M140.6 0L102.8 92L176.6 80Z" fill="#111113" stroke="#111113"></path><path d="M176.6 80L102.8 92L135.6 157Z" fill="#0f0f11" stroke="#0f0f11"></path><path d="M0 206L0 303L56.8 282Z" fill="#101012" stroke="#101012"></path><path d="M849.2 501L831.2 447L737.4 513Z" fill="#111113" stroke="#111113"></path><path d="M831.2 447L852.2 385L768.4 394Z" fill="#0d0d0f" stroke="#0d0d0f"></path><path d="M900 194L821.2 139L793.2 236Z" fill="#0d0d0f" stroke="#0d0d0f"></path><path d="M102.8 92L55.8 156L135.6 157Z" fill="#101012" stroke="#101012"></path><path d="M900 270L793.2 236L810.2 310Z" fill="#0a0a0c" stroke="#0a0a0c"></path><path d="M104.8 416L77.8 546L177.6 476Z" fill="#121214" stroke="#121214"></path><path d="M0 446L77.8 546L104.8 416Z" fill="#0c0c0e" stroke="#0c0c0e"></path><path d="M0 446L104.8 416L94.8 389Z" fill="#0c0c0e" stroke="#0c0c0e"></path><path d="M825.2 0L719.4 0L768.4 86Z" fill="#121214" stroke="#121214"></path><path d="M768.4 86L719.4 0L644.5 44Z" fill="#101012" stroke="#101012"></path><path d="M278.5 0L140.6 0L215.5 75Z" fill="#101012" stroke="#101012"></path><path d="M0 56L0 182L55.8 156Z" fill="#0f0f11" stroke="#0f0f11"></path><path d="M0 206L56.8 282L78.8 214Z" fill="#0c0c0e" stroke="#0c0c0e"></path><path d="M56.8 282L0 354L94.8 389Z" fill="#0f0f11" stroke="#0f0f11"></path><path d="M0 303L0 354L56.8 282Z" fill="#0d0d0f" stroke="#0d0d0f"></path><path d="M816.2 600L849.2 501L737.4 513Z" fill="#101012" stroke="#101012"></path><path d="M831.2 447L900 418L852.2 385Z" fill="#09090b" stroke="#09090b"></path><path d="M0 600L85.8 600L77.8 546Z" fill="#121214" stroke="#121214"></path><path d="M77.8 546L85.8 600L171.6 533Z" fill="#09090b" stroke="#09090b"></path><path d="M55.8 156L0 206L78.8 214Z" fill="#0d0d0f" stroke="#0d0d0f"></path><path d="M0 182L0 206L55.8 156Z" fill="#0a0a0c" stroke="#0a0a0c"></path><path d="M0 354L0 446L94.8 389Z" fill="#0e0e10" stroke="#0e0e10"></path><path d="M900 418L900 344L852.2 385Z" fill="#0b0b0d" stroke="#0b0b0d"></path><path d="M852.2 385L900 344L810.2 310Z" fill="#0c0c0e" stroke="#0c0c0e"></path><path d="M0 56L55.8 156L102.8 92Z" fill="#0d0d0f" stroke="#0d0d0f"></path><path d="M900 344L900 270L810.2 310Z" fill="#0d0d0f" stroke="#0d0d0f"></path><path d="M900 128L845.2 93L821.2 139Z" fill="#0d0d0f" stroke="#0d0d0f"></path><path d="M821.2 139L845.2 93L768.4 86Z" fill="#09090b" stroke="#09090b"></path><path d="M734.4 600L816.2 600L737.4 513Z" fill="#0b0b0d" stroke="#0b0b0d"></path><path d="M900 513L900 418L849.2 501Z" fill="#0e0e10" stroke="#0e0e10"></path><path d="M849.2 501L900 418L831.2 447Z" fill="#0c0c0e" stroke="#0c0c0e"></path><path d="M900 270L900 194L793.2 236Z" fill="#111113" stroke="#111113"></path><path d="M0 446L0 535L77.8 546Z" fill="#0e0e10" stroke="#0e0e10"></path><path d="M140.6 0L64.8 0L102.8 92Z" fill="#0d0d0f" stroke="#0d0d0f"></path><path d="M900 600L900 513L849.2 501Z" fill="#0d0d0f" stroke="#0d0d0f"></path><path d="M900 194L900 128L821.2 139Z" fill="#0b0b0d" stroke="#0b0b0d"></path><path d="M845.2 93L825.2 0L768.4 86Z" fill="#0d0d0f" stroke="#0d0d0f"></path><path d="M900 53L825.2 0L845.2 93Z" fill="#101012" stroke="#101012"></path><path d="M64.8 0L0 56L102.8 92Z" fill="#101012" stroke="#101012"></path><path d="M0 535L0 600L77.8 546Z" fill="#101012" stroke="#101012"></path><path d="M900 128L900 53L845.2 93Z" fill="#111113" stroke="#111113"></path><path d="M816.2 600L900 600L849.2 501Z" fill="#0c0c0e" stroke="#0c0c0e"></path><path d="M64.8 0L0 0L0 56Z" fill="#09090b" stroke="#09090b"></path><path d="M900 53L900 0L825.2 0Z" fill="#0f0f11" stroke="#0f0f11"></path></g></svg>