<svg id="visual" viewBox="0 0 900 600" width="900" height="600" xmlns="http://www.w3.org/2000/svg" xmlns:xlink="http://www.w3.org/1999/xlink" version="1.1"><g stroke-width="1" stroke-linejoin="bevel"><path d="M464 308L416 212L399 317Z" fill="#414649" stroke="#414649"></path><path d="M464 308L466 193L416 212Z" fill="#303336" stroke="#303336"></path><path d="M271 211L301 334L399 317Z" fill="#36393c" stroke="#36393c"></path><path d="M399 317L479 409L464 308Z" fill="#44494c" stroke="#44494c"></path><path d="M362 408L479 409L399 317Z" fill="#393c3f" stroke="#393c3f"></path><path d="M464 308L589 202L466 193Z" fill="#333639" stroke="#333639"></path><path d="M301 334L362 408L399 317Z" fill="#36393c" stroke="#36393c"></path><path d="M300 88L271 211L416 212Z" fill="#2e3032" stroke="#2e3032"></path><path d="M416 212L271 211L399 317Z" fill="#303336" stroke="#303336"></path><path d="M635 307L589 202L464 308Z" fill="#282a2c" stroke="#282a2c"></path><path d="M472 63L406 66L466 193Z" fill="#2e3032" stroke="#2e3032"></path><path d="M466 193L406 66L416 212Z" fill="#3c3f42" stroke="#3c3f42"></path><path d="M589 202L472 63L466 193Z" fill="#303336" stroke="#303336"></path><path d="M301 334L303 439L362 408Z" fill="#44494c" stroke="#44494c"></path><path d="M362 408L429 513L479 409Z" fill="#303336" stroke="#303336"></path><path d="M185 401L303 439L301 334Z" fill="#393c3f" stroke="#393c3f"></path><path d="M602 401L635 307L464 308Z" fill="#333639" stroke="#333639"></path><path d="M406 66L300 88L416 212Z" fill="#393c3f" stroke="#393c3f"></path><path d="M515 537L602 401L479 409Z" fill="#2b2d2f" stroke="#2b2d2f"></path><path d="M479 409L602 401L464 308Z" fill="#2b2d2f" stroke="#2b2d2f"></path><path d="M177 237L190 303L271 211Z" fill="#282a2c" stroke="#282a2c"></path><path d="M271 211L190 303L301 334Z" fill="#303336" stroke="#303336"></path><path d="M303 439L429 513L362 408Z" fill="#333639" stroke="#333639"></path><path d="M225 83L177 237L271 211Z" fill="#282a2c" stroke="#282a2c"></path><path d="M602 401L676 306L635 307Z" fill="#303336" stroke="#303336"></path><path d="M635 307L712 213L589 202Z" fill="#2e3032" stroke="#2e3032"></path><path d="M185 401L275 479L303 439Z" fill="#282a2c" stroke="#282a2c"></path><path d="M303 439L275 479L429 513Z" fill="#282a2c" stroke="#282a2c"></path><path d="M284 0L225 83L300 88Z" fill="#393c3f" stroke="#393c3f"></path><path d="M300 88L225 83L271 211Z" fill="#44494c" stroke="#44494c"></path><path d="M406 66L368 0L300 88Z" fill="#3c3f42" stroke="#3c3f42"></path><path d="M484 0L368 0L406 66Z" fill="#333639" stroke="#333639"></path><path d="M569 0L484 0L472 63Z" fill="#2b2d2f" stroke="#2b2d2f"></path><path d="M472 63L484 0L406 66Z" fill="#393c3f" stroke="#393c3f"></path><path d="M624 69L472 63L589 202Z" fill="#44494c" stroke="#44494c"></path><path d="M77 378L185 401L190 303Z" fill="#36393c" stroke="#36393c"></path><path d="M190 303L185 401L301 334Z" fill="#2e3032" stroke="#2e3032"></path><path d="M686 100L624 69L589 202Z" fill="#303336" stroke="#303336"></path><path d="M471 600L515 537L429 513Z" fill="#2b2d2f" stroke="#2b2d2f"></path><path d="M429 513L515 537L479 409Z" fill="#414649" stroke="#414649"></path><path d="M602 401L671 439L676 306Z" fill="#44494c" stroke="#44494c"></path><path d="M676 306L712 213L635 307Z" fill="#3c3f42" stroke="#3c3f42"></path><path d="M515 537L628 480L602 401Z" fill="#282a2c" stroke="#282a2c"></path><path d="M676 306L808 264L712 213Z" fill="#2e3032" stroke="#2e3032"></path><path d="M115 182L129 265L177 237Z" fill="#3e4346" stroke="#3e4346"></path><path d="M177 237L129 265L190 303Z" fill="#282a2c" stroke="#282a2c"></path><path d="M628 480L671 439L602 401Z" fill="#333639" stroke="#333639"></path><path d="M368 0L284 0L300 88Z" fill="#3e4346" stroke="#3e4346"></path><path d="M624 69L569 0L472 63Z" fill="#333639" stroke="#333639"></path><path d="M712 213L686 100L589 202Z" fill="#2b2d2f" stroke="#2b2d2f"></path><path d="M624 69L663 0L569 0Z" fill="#2b2d2f" stroke="#2b2d2f"></path><path d="M225 83L115 182L177 237Z" fill="#303336" stroke="#303336"></path><path d="M89 116L115 182L225 83Z" fill="#44494c" stroke="#44494c"></path><path d="M275 479L389 600L429 513Z" fill="#2e3032" stroke="#2e3032"></path><path d="M288 600L389 600L275 479Z" fill="#303336" stroke="#303336"></path><path d="M389 600L471 600L429 513Z" fill="#44494c" stroke="#44494c"></path><path d="M515 537L567 600L628 480Z" fill="#3c3f42" stroke="#3c3f42"></path><path d="M77 378L162 477L185 401Z" fill="#3c3f42" stroke="#3c3f42"></path><path d="M185 401L162 477L275 479Z" fill="#282a2c" stroke="#282a2c"></path><path d="M77 378L190 303L129 265Z" fill="#393c3f" stroke="#393c3f"></path><path d="M823 0L663 0L686 100Z" fill="#414649" stroke="#414649"></path><path d="M686 100L663 0L624 69Z" fill="#2b2d2f" stroke="#2b2d2f"></path><path d="M186 600L288 600L275 479Z" fill="#393c3f" stroke="#393c3f"></path><path d="M711 600L730 460L628 480Z" fill="#414649" stroke="#414649"></path><path d="M628 480L730 460L671 439Z" fill="#282a2c" stroke="#282a2c"></path><path d="M671 439L730 460L676 306Z" fill="#36393c" stroke="#36393c"></path><path d="M471 600L567 600L515 537Z" fill="#333639" stroke="#333639"></path><path d="M0 269L77 378L129 265Z" fill="#393c3f" stroke="#393c3f"></path><path d="M168 0L89 116L225 83Z" fill="#44494c" stroke="#44494c"></path><path d="M0 233L0 269L129 265Z" fill="#303336" stroke="#303336"></path><path d="M284 0L168 0L225 83Z" fill="#36393c" stroke="#36393c"></path><path d="M815 415L808 264L676 306Z" fill="#333639" stroke="#333639"></path><path d="M712 213L822 104L686 100Z" fill="#36393c" stroke="#36393c"></path><path d="M808 264L822 186L712 213Z" fill="#2e3032" stroke="#2e3032"></path><path d="M162 477L186 600L275 479Z" fill="#414649" stroke="#414649"></path><path d="M104 535L186 600L162 477Z" fill="#393c3f" stroke="#393c3f"></path><path d="M782 539L815 415L730 460Z" fill="#414649" stroke="#414649"></path><path d="M730 460L815 415L676 306Z" fill="#2b2d2f" stroke="#2b2d2f"></path><path d="M808 264L900 269L822 186Z" fill="#2b2d2f" stroke="#2b2d2f"></path><path d="M77 378L104 535L162 477Z" fill="#393c3f" stroke="#393c3f"></path><path d="M168 0L102 0L89 116Z" fill="#393c3f" stroke="#393c3f"></path><path d="M0 233L129 265L115 182Z" fill="#3e4346" stroke="#3e4346"></path><path d="M77 378L0 528L104 535Z" fill="#333639" stroke="#333639"></path><path d="M0 233L115 182L89 116Z" fill="#3c3f42" stroke="#3c3f42"></path><path d="M0 69L0 233L89 116Z" fill="#393c3f" stroke="#393c3f"></path><path d="M822 186L822 104L712 213Z" fill="#414649" stroke="#414649"></path><path d="M567 600L711 600L628 480Z" fill="#414649" stroke="#414649"></path><path d="M0 269L0 395L77 378Z" fill="#36393c" stroke="#36393c"></path><path d="M711 600L782 539L730 460Z" fill="#2b2d2f" stroke="#2b2d2f"></path><path d="M102 0L0 69L89 116Z" fill="#2b2d2f" stroke="#2b2d2f"></path><path d="M815 415L900 269L808 264Z" fill="#36393c" stroke="#36393c"></path><path d="M822 186L900 119L822 104Z" fill="#303336" stroke="#303336"></path><path d="M900 408L900 269L815 415Z" fill="#44494c" stroke="#44494c"></path><path d="M900 0L823 0L822 104Z" fill="#393c3f" stroke="#393c3f"></path><path d="M822 104L823 0L686 100Z" fill="#2e3032" stroke="#2e3032"></path><path d="M900 269L900 192L822 186Z" fill="#2b2d2f" stroke="#2b2d2f"></path><path d="M0 528L71 600L104 535Z" fill="#44494c" stroke="#44494c"></path><path d="M104 535L71 600L186 600Z" fill="#333639" stroke="#333639"></path><path d="M900 523L900 408L815 415Z" fill="#303336" stroke="#303336"></path><path d="M900 192L900 119L822 186Z" fill="#36393c" stroke="#36393c"></path><path d="M0 395L0 528L77 378Z" fill="#393c3f" stroke="#393c3f"></path><path d="M102 0L0 0L0 69Z" fill="#414649" stroke="#414649"></path><path d="M711 600L805 600L782 539Z" fill="#2b2d2f" stroke="#2b2d2f"></path><path d="M782 539L900 523L815 415Z" fill="#414649" stroke="#414649"></path><path d="M805 600L900 523L782 539Z" fill="#3e4346" stroke="#3e4346"></path><path d="M0 528L0 600L71 600Z" fill="#3c3f42" stroke="#3c3f42"></path><path d="M900 119L900 0L822 104Z" fill="#2e3032" stroke="#2e3032"></path><path d="M805 600L900 600L900 523Z" fill="#3e4346" stroke="#3e4346"></path></g></svg>